PathFileType	4	(X/Y/Z)	s07c0201.trc
DataRate	CameraRate	NumFrames	NumMarkers	Units	OrigDataRate	OrigDataStartFrame	OrigNumFrames
200	200	4	48	mm	200	750	2000
Frame#	Time	racr			lacr			c7			jug			rlel			rdr			llel			ldr			s2			lic			ric			lasi			rasi			rpsi			lpsi			rgt			lgt			rth1			rth2			rth3			rth4			rlfc			rmfc			rsh1			rsh2			rsh3			rsh4			rlmal			rcal			rtoe			rmt5			lth1			lth2			lth4			lth3			llfc			lmfc			lsh1			lsh2			lsh3			lsh4			llmal			lcal			ltoe			lmt5			SBIKE			LBIKE			RBIKE			
		X1	Y1	Z1	X2	Y2	Z2	X3	Y3	Z3	X4	Y4	Z4	X5	Y5	Z5	X6	Y6	Z6	X7	Y7	Z7	X8	Y8	Z8	X9	Y9	Z9	X10	Y10	Z10	X11	Y11	Z11	X12	Y12	Z12	X13	Y13	Z13	X14	Y14	Z14	X15	Y15	Z15	X16	Y16	Z16	X17	Y17	Z17	X18	Y18	Z18	X19	Y19	Z19	X20	Y20	Z20	X21	Y21	Z21	X22	Y22	Z22	X23	Y23	Z23	X24	Y24	Z24	X25	Y25	Z25	X26	Y26	Z26	X27	Y27	Z27	X28	Y28	Z28	X29	Y29	Z29	X30	Y30	Z30	X31	Y31	Z31	X32	Y32	Z32	X33	Y33	Z33	X34	Y34	Z34	X35	Y35	Z35	X36	Y36	Z36	X37	Y37	Z37	X38	Y38	Z38	X39	Y39	Z39	X40	Y40	Z40	X41	Y41	Z41	X42	Y42	Z42	X43	Y43	Z43	X44	Y44	Z44	X45	Y45	Z45	X46	Y46	Z46	X47	Y47	Z47	X48	Y48	Z48	
750	3.7500	462.109253	1461.447712	-113.170038	437.379162	1433.761797	-385.369982	412.638066	1504.697773	-253.226757	363.021674	1359.549139	-244.023898	494.698911	1142.576507	52.482289	693.569275	951.642251	-68.938908	449.932588	1121.741891	-538.668179	685.008855	945.834292	-456.246880	-138.271515	1203.939105	-234.843010	6.166615	1279.416685	-377.445879	27.465866	1266.710055	-87.996181	46.150583	1208.886614	-353.329552	50.382848	1207.126900	-102.089412	-112.550961	1244.881923	-184.001985	-111.426158	1257.030690	-289.808087	-18.783619	1115.386767	-50.229949	-19.509692	1126.483749	-416.300673	69.407268	980.580350	-44.269099	125.913091	913.246855	-54.598526	143.864983	829.629102	-57.266578	155.595768	929.268411	-71.024359	199.622567	703.557251	-88.335901	181.299818	684.519956	-187.062634	176.909542	563.046759	-55.689401	189.620673	476.556261	-74.500360	161.869528	394.226143	-68.180689	202.495640	478.661768	-113.414126	144.476962	252.646018	-69.289216	84.761450	203.851055	-92.521017	373.100526	220.004637	-130.010344	306.487752	175.380157	-53.996042	87.451260	1068.049924	-417.938334	175.519465	1061.293233	-419.220410	187.757411	1094.516937	-410.541076	249.321612	1011.100474	-416.799585	400.646520	915.162315	-385.485628	391.137531	896.867601	-283.154421	300.297360	804.784975	-401.712782	255.483932	732.642611	-385.845447	177.432798	688.165238	-391.858912	262.008298	730.328401	-344.197293	77.864035	604.784186	-395.309145	3.087217	624.349352	-357.687004	185.330636	398.960918	-358.498009	113.149062	442.892747	-419.960786	-263.072512	974.955450	-234.929850	-82.752166	79.548609	-435.173557	-82.644539	79.004201	-37.518857	
751	3.7550	463.758031	1462.009464	-116.241665	434.882453	1435.280134	-388.278394	411.986782	1506.284573	-255.452131	362.258951	1361.155275	-246.244378	495.562919	1144.010948	52.200204	694.444377	952.681724	-67.729649	447.988336	1122.021102	-538.615633	683.951667	946.190757	-456.483387	-137.093246	1204.406117	-231.531109	5.240048	1281.391585	-374.150931	29.935422	1265.542948	-85.316764	46.550944	1211.156316	-351.012913	52.373859	1205.776202	-99.629900	-110.723553	1244.646259	-180.657365	-110.848395	1257.941269	-286.071847	-17.713334	1114.081203	-48.531935	-18.834003	1130.499027	-415.112218	67.012376	977.853517	-41.886665	122.179297	909.299098	-51.724474	138.283264	825.347618	-54.397286	152.225371	924.597761	-68.375857	192.436317	698.552671	-86.605314	174.608905	679.770766	-185.317998	169.490391	558.130854	-54.259428	182.131718	471.682068	-73.098456	154.235634	389.377626	-67.169175	195.237631	473.928609	-111.910093	136.689511	247.995299	-68.745738	76.531720	200.333110	-92.303916	364.988418	212.103723	-129.857855	297.730906	168.346074	-53.919013	88.951239	1074.363994	-417.316210	177.156506	1069.516705	-418.881802	188.707672	1102.844407	-409.750543	252.098312	1020.894994	-417.096707	405.926894	927.754250	-386.548153	397.883013	909.256120	-283.695696	309.116130	815.382526	-402.463332	264.995603	742.834280	-386.534692	187.535136	697.399328	-392.780366	271.326892	740.974949	-344.833115	89.874582	611.209841	-394.930416	13.614789	631.640007	-358.090135	194.712643	404.948458	-358.697661	122.421939	449.182844	-419.970249	-262.948962	975.055702	-234.700337	-82.904735	79.549190	-435.036600	-82.630181	79.025267	-37.506499	
752	3.7600	465.257009	1462.492295	-119.209627	432.366387	1436.921033	-391.186567	411.365189	1507.854837	-257.511881	361.419755	1362.775905	-248.382417	496.310379	1145.391409	51.952370	695.470474	953.822332	-66.385894	446.233915	1122.246610	-538.073067	682.767673	946.393397	-456.458671	-135.937331	1204.767333	-228.141998	4.405542	1283.285284	-370.980781	32.501735	1264.402068	-82.724839	46.393658	1212.829449	-347.657797	54.366799	1204.586669	-97.252783	-109.110368	1244.497303	-177.174370	-110.269145	1258.795180	-282.423887	-16.578454	1112.827728	-46.813029	-18.058625	1134.256595	-413.803468	64.945907	975.291042	-39.547903	118.761476	905.726935	-48.968200	132.915507	821.480147	-51.465676	149.126553	920.370966	-65.579705	185.684910	693.951374	-85.068182	168.350663	675.645953	-183.837613	162.433124	553.836841	-53.104207	174.847044	467.412095	-71.934915	146.576694	385.155521	-66.193514	187.972272	469.628064	-110.715278	128.437452	243.843352	-68.183137	67.993420	197.025075	-91.963608	356.389203	204.732384	-130.099559	288.828235	161.940240	-53.848308	90.346984	1080.471350	-416.637922	178.621790	1077.438351	-418.354295	189.515822	1110.854538	-408.502973	254.523868	1030.321506	-417.427118	411.390289	940.159857	-386.563680	404.169988	921.260978	-283.991734	317.418276	825.903504	-403.137943	274.037270	752.973804	-387.164814	197.119824	706.572003	-393.525902	280.207787	751.477466	-345.485985	98.651265	617.864408	-397.105041	23.097009	638.024541	-358.553632	204.579507	411.182184	-358.383554	132.274502	455.239522	-420.400680	-262.826250	975.154654	-234.448212	-82.876003	79.622310	-434.948684	-82.623387	79.053474	-37.471965	
753	3.7650	466.654657	1462.919590	-122.140301	429.837944	1438.729208	-394.066242	410.811615	1509.344743	-259.306102	360.675083	1364.302269	-250.339810	496.798990	1146.567930	51.512704	696.658410	954.801336	-64.918137	444.635490	1122.635166	-537.424199	681.546814	946.430486	-456.069267	-134.802583	1205.148705	-224.971652	3.731331	1285.031078	-368.014090	35.001707	1263.218862	-80.239618	47.128649	1214.828802	-345.533121	56.310349	1203.497621	-95.118080	-107.721532	1244.406463	-173.714815	-109.680163	1259.640008	-278.903329	-15.219655	1111.620725	-45.171208	-17.257450	1137.892008	-412.466554	63.218320	972.969643	-37.020933	115.809944	902.354674	-46.204633	128.377424	817.812555	-48.382302	146.315031	916.431464	-62.942618	179.531713	689.991064	-83.616997	162.581358	671.893871	-182.517291	155.623737	550.256744	-52.133712	167.700714	463.845820	-71.083833	138.961220	381.626073	-65.413604	180.803621	465.937079	-109.703712	120.144782	240.335752	-67.808649	59.075994	194.702597	-91.547570	347.925330	198.226671	-129.679716	279.454630	156.232844	-53.672332	91.565070	1086.296568	-415.840524	179.882815	1085.009396	-417.608142	190.149288	1118.407238	-406.965309	256.546222	1039.570166	-417.598082	415.822482	952.016318	-386.965740	409.914397	932.497711	-284.275339	325.141862	836.054993	-403.584352	282.437515	762.669899	-387.789751	205.995204	715.548145	-394.179536	290.142518	761.397415	-344.015466	107.785709	623.607104	-397.824680	31.742178	643.242389	-358.931522	214.622927	417.322950	-357.861775	142.285027	460.883225	-420.245192	-262.669981	975.274873	-234.193375	-82.846780	79.658989	-434.841273	-82.564586	79.043965	-37.471520	
